<svg width="43" height="43" viewBox="0 0 43 43" fill="none" xmlns="http://www.w3.org/2000/svg">
<g clip-path="url(#clip0_94_2)">
<rect x="4" y="8" width="35" height="28" fill="#C5F74F"/>
<path d="M2.13398 2.13301C-0.932682 5.19967 -0.932682 37.4663 2.13398 40.533C5.20065 43.5997 37.4673 43.5997 40.534 40.533C43.6007 37.4663 43.6007 5.19967 40.534 2.13301C37.4673 -0.933661 5.20065 -0.933661 2.13398 2.13301ZM22.6673 14.133C22.6673 15.8663 17.0673 23.9997 15.8673 23.9997C13.8673 23.9997 14.534 21.333 17.4673 17.1997C20.0007 13.733 22.6673 12.133 22.6673 14.133ZM35.8673 18.6663C32.934 23.8663 30.6673 25.4663 30.6673 22.533C30.6673 19.8663 35.2007 13.333 37.0673 13.333C38.4007 13.333 38.0007 14.7997 35.8673 18.6663ZM12.0007 20.133C12.0007 22.7997 7.46732 29.333 5.60065 29.333C4.26732 29.333 4.66732 27.8663 6.80065 23.9997C9.73398 18.7997 12.0007 17.1997 12.0007 20.133ZM28.0007 20.2663C28.0007 22.7997 21.734 30.133 20.6673 29.0663C20.134 28.533 21.0673 25.9997 22.6673 23.4663C25.6007 18.6663 28.0007 17.1997 28.0007 20.2663Z" fill="black"/>
</g>
<defs>
<clipPath id="clip0_94_2">
<rect width="42.6667" height="42.6667" fill="white"/>
</clipPath>
</defs>
</svg>
