<svg width="309" height="305" viewBox="0 0 309 305" fill="none" xmlns="http://www.w3.org/2000/svg">
<path d="M56.4761 43.7641H57.9063L56.7622 43.192L56.4761 43.7641ZM60.1946 42.0478C60.1946 42.3339 60.1946 42.3339 60.4807 42.3339L61.6248 41.4758C61.0527 41.1897 60.7667 41.1897 60.1946 42.0478ZM49.0392 49.7708L49.8973 49.1988C50.1833 48.9127 50.1833 48.6267 50.1833 48.6267H49.6113L49.0392 49.7708C48.7531 49.7708 48.7531 49.4848 49.0392 49.7708ZM55.332 41.4758H55.046L54.4739 42.0478H55.332V41.4758ZM49.3252 48.3407L51.0414 46.9105C51.3275 46.6244 51.3275 46.3384 51.3275 46.0524H50.4694L47.0369 49.1988L46.4648 50.3429L48.4671 48.6267L49.3252 48.3407Z" fill="#6640F3"/>
<path d="M27.5866 71.5094V70.9373C27.6968 70.3069 27.9305 69.7045 28.274 69.1645C28.6176 68.6246 29.0644 68.1578 29.5888 67.7909L32.1631 66.0747L33.5933 64.3585L35.5956 62.3562L36.7397 61.2121L37.8839 60.3539C38.9056 59.7666 39.7087 58.8631 40.1722 57.7796L41.3163 56.3494C42.4383 55.2491 43.401 53.9976 44.1767 52.6309L44.7488 51.7728L45.6069 51.2008L45.0348 50.3426L46.179 48.9125C48.4673 47.1962 50.1835 44.9079 52.4718 43.1917L53.3299 42.3336C53.6342 41.6374 54.1302 41.0422 54.7601 40.6174L57.0484 39.4732H58.1925C59.0346 39.1436 59.7403 38.5387 60.1948 37.757V37.1849C61.0389 35.5311 62.3264 34.1446 63.9133 33.1804L66.2016 31.7502L66.7737 31.1781L67.9178 30.034L70.7782 28.6038H71.3503L68.2038 29.748L64.1993 32.6083C62.4831 34.0385 60.1948 34.3246 59.0506 36.6129H59.9088C57.9065 37.1849 55.9042 38.043 55.0461 40.0453C54.188 42.0476 52.7578 41.7615 51.6137 42.6196C51.3619 42.6845 51.1398 42.8331 50.9838 43.0411C50.8279 43.2491 50.7473 43.504 50.7556 43.7638C48.4673 43.4778 47.6092 45.194 46.465 46.3381V48.6264C44.5981 49.5117 43.0137 50.898 41.8884 52.6309C37.3118 52.917 37.3118 58.6377 33.3073 59.7819H33.0213C32.9711 59.8688 32.9446 59.9675 32.9446 60.0679C32.9446 60.1683 32.9711 60.267 33.0213 60.3539C32.1631 60.3539 31.5911 60.926 31.8771 61.7841L31.305 63.2143C29.3028 64.3585 29.5888 66.3607 28.4447 68.077C26.1564 69.5071 25.2983 72.3675 23.582 74.3698L24.4401 75.8L25.0122 75.2279C25.7848 73.9313 26.6449 72.6889 27.5866 71.5094ZM154.015 9.43932L155.731 10.0114H156.303C157.539 10.6376 158.946 10.8387 160.308 10.5835C162.117 10.2513 163.978 10.3493 165.743 10.8695H169.175C169.775 10.7401 170.396 10.7501 170.991 10.8989C171.586 11.0477 172.139 11.3312 172.607 11.7276C172.633 11.7711 172.646 11.8204 172.646 11.8706C172.646 11.9208 172.633 11.9702 172.607 12.0137H171.463C171.438 12.0571 171.425 12.1065 171.425 12.1567C171.425 12.2069 171.438 12.2562 171.463 12.2997H173.466C174.662 11.8365 175.988 11.8365 177.184 12.2997C177.756 12.2997 177.47 12.5857 177.756 12.8718L179.186 13.4438H178.614C178.042 12.2997 177.184 12.2997 176.326 12.2997C172.477 10.5122 168.269 9.63153 164.026 9.72536H161.738C158.406 8.70745 154.914 8.31944 151.441 8.58121H152.013L154.015 9.43932ZM196.349 19.7367C196.711 20.1102 197.179 20.3648 197.69 20.4669C198.201 20.5691 198.73 20.5139 199.209 20.3087H200.925C199.466 19.1101 197.662 18.4086 195.776 18.3065L193.774 17.7344L195.204 18.5925L196.349 19.7367ZM186.623 16.0182C186.623 16.3042 186.909 16.5903 187.195 16.8763H187.767L189.198 16.0182C187.72 15.1009 186.061 14.5153 184.335 14.302L186.337 15.4461L186.623 16.0182ZM207.79 23.7412L210.078 25.1714C209.506 24.3133 208.934 23.7412 207.79 23.7412Z" fill="#6640F3"/>
<path d="M283.018 217.674L284.734 213.097L286.45 208.807C287.022 207.377 288.167 203.658 288.739 201.37C288.87 200.646 289.163 199.962 289.597 199.368H289.883V196.221C291.313 195.935 291.027 194.505 291.313 193.647L293.601 180.203C295.066 174.383 295.066 168.29 293.601 162.469C293.729 161.647 293.666 160.808 293.418 160.014C293.17 159.221 292.744 158.495 292.171 157.892V145.593C291.313 143.018 293.029 140.158 291.027 137.87L288.739 128.717C288.787 128.529 288.787 128.332 288.739 128.144L288.167 126.428C288.088 126.248 288.047 126.053 288.047 125.856C288.047 125.659 288.088 125.465 288.167 125.284H288.453C289.311 125.284 289.311 123.854 289.311 122.71C289.14 121.596 288.751 120.527 288.167 119.563L287.309 118.419C286.896 117.836 286.694 117.13 286.736 116.417C286.834 114.492 286.642 112.563 286.164 110.696V108.98C285.592 106.978 285.02 104.689 284.448 102.687L283.876 101.257C283.251 100.313 282.859 99.2351 282.732 98.1105C282.579 97.3042 282.289 96.5301 281.874 95.8222L280.158 92.9619C279.925 92.7549 279.653 92.5974 279.358 92.499C279.063 92.4007 278.751 92.3635 278.441 92.3898H278.155V91.5317H277.583V89.2434H277.297V88.6713C277.309 88.5763 277.309 88.4802 277.297 88.3853V87.8132C277.583 87.2411 277.583 86.9551 277.011 86.383C276.518 85.894 276.129 85.3102 275.867 84.6668L275.295 82.9506C274.915 81.6611 274.228 80.4831 273.293 79.5181C272.689 78.9513 272.203 78.2709 271.862 77.5158L269.86 72.9392C269.421 71.9123 268.843 70.95 268.144 70.0789L266.428 67.7906C265.906 67.1062 265.518 66.33 265.284 65.5023L264.712 64.6442C264.562 64.4414 264.458 64.2082 264.409 63.961C264.36 63.7138 264.365 63.4587 264.426 63.214C264.426 62.992 264.374 62.773 264.275 62.5744C264.175 62.3758 264.031 62.2031 263.853 62.0698L262.709 61.2117V61.7838C262.995 62.3559 262.709 62.6419 262.423 62.6419H261.851L262.709 65.5023L263.567 66.9325L265.57 69.5068H265.284L264.712 68.9347L264.139 68.3627C264.011 67.5258 263.601 66.7578 262.977 66.1857C262.353 65.6136 261.552 65.2716 260.707 65.2162V63.214C259.849 59.7815 256.13 59.4955 254.414 57.2072C254.143 56.5514 253.714 55.973 253.165 55.5237C252.616 55.0745 251.964 54.7684 251.268 54.6329L248.98 52.0585C246.602 48.6553 243.592 45.7418 240.112 43.4774L237.824 41.7612L236.68 40.9031C234.678 38.9008 233.82 35.7544 230.387 35.7544L228.099 34.3242L225.524 32.322C225.073 31.3013 224.358 30.419 223.454 29.7655C222.549 29.1121 221.487 28.711 220.376 28.6035C218.515 26.9114 216.249 25.729 213.797 25.171L214.369 25.7431L215.799 26.8873L219.518 28.8895C221.746 30.0929 223.773 31.637 225.524 33.4661C226.804 34.7065 228.247 35.7652 229.815 36.6125L231.531 38.0427C231.817 38.3287 232.103 38.6148 231.817 38.9008H231.531L228.957 38.0427C226.92 37.6573 224.977 36.8802 223.236 35.7544L219.804 34.0382L216.085 32.0359H215.513C214.655 31.7499 214.369 30.8918 213.225 30.6057L210.937 30.0337L203.786 28.6035C202.79 28.1348 201.911 27.4509 201.211 26.6012C200.289 26.5653 199.396 26.2676 198.637 25.7431L195.777 24.599C193.05 24.0525 190.371 23.2873 187.768 22.3107L186.051 21.7386L183.191 20.8805H181.761L181.189 20.0224V19.7363H176.612L174.896 18.3061L173.752 18.8782L172.608 19.4503H172.036L169.461 18.0201C167.745 19.7363 166.315 17.448 164.885 17.7341L162.024 16.876C161.502 17.1772 160.91 17.3358 160.308 17.3358C159.705 17.3358 159.114 17.1772 158.592 16.876H155.159C154.755 16.8077 154.389 16.5972 154.127 16.2824C153.864 15.9676 153.723 15.5694 153.729 15.1597L154.587 14.5877H156.303C156.463 14.8481 156.561 15.1417 156.589 15.4458C156.589 16.0178 157.162 16.0178 158.02 16.0178H158.592L157.448 14.3016C157.052 13.9824 156.586 13.7637 156.088 13.6641C155.59 13.5645 155.075 13.5869 154.587 13.7295L151.727 14.5877H151.441C152.299 15.1597 152.013 15.4458 152.013 16.0178H147.436L146.292 15.4458L144.004 14.3016H143.718L141.716 13.7295H135.137L136.281 13.1575L138.569 12.5854H139.427L144.29 11.7273L147.436 11.1552L149.153 10.5831H146.006C142.798 9.92021 139.489 9.92021 136.281 10.5831H132.562L122.837 10.2971C118.833 10.5831 114.828 10.2971 111.682 13.7295C104.531 12.5854 98.2379 15.7318 91.9451 18.8782L85.6523 21.4525C81.6718 22.0162 77.9693 23.8174 75.0689 26.6012H75.927L77.3572 25.7431L79.6455 24.3129L83.364 22.5967L86.2243 22.0246C87.9569 20.8223 89.8962 19.9496 91.9451 19.4503L94.5194 18.5922H95.0915C95.3775 19.1643 96.5217 18.5922 97.0937 18.5922H97.6658C97.9519 18.5922 97.9519 18.8782 97.6658 18.8782L95.9496 20.0224L98.81 19.1642L101.098 18.5922L97.3798 20.5944L93.6613 21.7386C93.2939 21.8496 92.9526 22.0335 92.6578 22.2792C92.3629 22.5249 92.1206 22.8274 91.9451 23.1688L91.087 24.599H91.9451L93.0892 24.0269C93.383 23.5844 93.762 23.2048 94.2039 22.9101C94.6459 22.6155 95.1421 22.4117 95.6636 22.3107L99.9541 20.8805H101.384C101.46 20.8425 101.548 20.8363 101.628 20.8631C101.709 20.8899 101.775 20.9476 101.813 21.0235C101.851 21.0994 101.858 21.1872 101.831 21.2676C101.804 21.3481 101.746 21.4146 101.67 21.4525C101.098 22.0246 99.9541 22.3107 99.382 22.8827H99.9541L90.8009 25.4571L79.9315 30.0337C78.0638 31.7152 75.8004 32.8961 73.3527 33.4661C71.9033 34.7588 70.2631 35.8201 68.49 36.6125L66.2017 37.1846C65.8831 37.9174 65.3662 38.5467 64.7092 39.0015C64.0522 39.4563 63.2813 39.7187 62.4832 39.7589L61.6251 41.1891C60.7288 42.4797 59.5562 43.5545 58.1927 44.3355H57.9066V44.0495L57.3346 44.6216L56.7625 45.1936L53.9021 45.7657H52.4719L51.3278 47.1959C51.0418 47.4819 51.0418 47.768 51.3278 47.768H51.6138C49.8976 49.4842 48.7535 51.7725 46.4652 52.6306L42.7467 56.9212C41.0305 60.3536 37.598 61.4978 35.3097 64.3581C33.0214 67.2185 31.3052 75.5136 24.1543 76.6577L23.5822 75.7996L23.0101 77.2298C22.7586 78.0509 22.3719 78.8243 21.866 79.5181C20.5798 81.4358 19.4327 83.4432 18.4335 85.5249C18.1847 85.9577 18.0843 86.4599 18.1475 86.9551C18.1908 87.758 17.9915 88.5553 17.5754 89.2434L16.1452 92.3898H16.7173C17.5754 92.3898 17.5754 93.2479 17.8614 94.106L20.1497 90.9596C20.574 90.1784 21.1589 89.496 21.866 88.9573C22.9815 88.4025 23.8854 87.4986 24.4403 86.383L25.2984 85.5249L26.4426 84.3807L28.1588 81.2343H28.7309C29.0169 81.5204 29.0169 81.5204 29.3029 81.2343L29.875 80.0902H31.3052V82.3785L32.7354 80.9483C32.8609 80.7309 32.927 80.4842 32.927 80.2332C32.927 79.9821 32.8609 79.7355 32.7354 79.5181C32.7222 79.3631 32.7408 79.2071 32.79 79.0596C32.8392 78.912 32.9179 78.7761 33.0214 78.66C33.3982 78.244 33.6898 77.7581 33.8795 77.2298C34.0251 76.648 34.3092 76.11 34.7076 75.6617C35.1061 75.2135 35.6071 74.8682 36.1678 74.6555L37.0259 74.0834L37.884 73.2253C38.8918 72.4967 39.6827 71.508 40.1723 70.3649L39.6003 69.5068C39.6003 69.2208 39.8863 68.6487 40.1723 68.3627H41.6025L43.3187 66.0744L45.035 65.2162H45.607C39.7357 71.5784 34.469 78.473 29.875 85.8109C23.47 95.796 18.3749 106.563 14.715 117.847H13.2848L11.8547 116.703C11.2826 116.131 11.5686 114.701 10.7105 114.129H10.9965C11.8547 112.698 10.7105 110.696 11.8547 109.266C12.9988 107.836 12.1407 105.261 9.28032 105.834C6.41995 106.406 4.98976 107.264 5.56183 110.124C6.13391 112.984 2.70146 115.273 2.41543 118.419C2.12939 121.566 0.985239 119.849 1.55731 120.994V132.149C1.84335 134.437 0.127128 137.298 3.84561 138.156L7.5641 140.73C7.85013 142.16 6.13391 145.307 10.1384 144.449C9.60975 149.198 9.32334 153.972 9.28032 158.75C9.28032 161.897 9.56636 165.043 9.56636 168.19V167.046C9.28032 165.901 9.28032 164.757 8.99428 163.327L8.13617 164.185V163.613H6.70598C6.70598 165.043 6.41995 165.901 5.56183 166.187C5.33061 166.627 5.23128 167.123 5.2758 167.618C5.2758 167.904 5.56183 168.476 5.84787 168.19C6.13391 167.904 6.99202 168.762 7.85013 169.334C8.70824 169.906 7.27806 170.192 6.70598 169.906C6.13391 169.62 6.13391 170.192 6.13391 170.764V171.622L7.5641 175.913C7.5641 176.771 7.27806 177.629 7.27806 178.487C7.27806 179.285 7.47453 180.071 7.85013 180.775H6.99202V179.917L4.98976 179.345V177.629C5.06977 177.156 5.06977 176.672 4.98976 176.199C4.59664 174.502 4.31005 172.782 4.13165 171.05C3.58813 167.742 3.39637 164.387 3.55957 161.039C3.51506 160.544 3.61439 160.048 3.84561 159.609V160.181C3.98276 160.648 4.07848 161.127 4.13165 161.611C4.12539 162.011 4.22401 162.405 4.41769 162.755C4.70372 163.327 4.98976 163.899 5.56183 163.899C6.13391 163.899 5.84787 163.613 5.84787 163.327C5.81097 162.84 5.71492 162.36 5.56183 161.897C5.0795 160.711 4.78981 159.456 4.70372 158.178C4.5947 157.448 4.29914 156.759 3.84561 156.176C3.40646 155.393 3.20751 154.497 3.27354 153.602V151.313C3.27354 150.455 3.55957 149.597 3.55957 148.739C3.59599 148.539 3.58931 148.333 3.53998 148.136C3.49066 147.939 3.39982 147.754 3.27354 147.595H2.9875C0.699202 148.739 0.985239 148.167 0.127128 152.172V157.32C0.127128 159.322 -0.15891 161.325 0.127128 163.327C0.0822082 165.534 0.273995 167.74 0.699202 169.906C0.765737 170.38 0.765737 170.862 0.699202 171.336C0.668027 172.204 0.764401 173.071 0.985239 173.91C1.21767 175.136 1.3136 176.383 1.27128 177.629C1.09952 179.272 1.29492 180.933 1.84335 182.492C1.90736 182.87 1.90736 183.257 1.84335 183.636C1.79001 184.41 1.88714 185.187 2.12939 185.924C2.40056 186.762 2.5921 187.624 2.70146 188.498C3.00813 190.631 3.48641 192.735 4.13165 194.791C4.41933 195.723 4.61102 196.681 4.70372 197.651C4.83466 198.375 5.12806 199.06 5.56183 199.654C6.29217 200.675 6.78119 201.849 6.99202 203.086C7.21918 204.056 7.50576 205.012 7.85013 205.947L8.99428 209.951C9.34797 211.459 9.92652 212.906 10.7105 214.242C11.7358 216.134 12.5052 218.154 12.9988 220.248L13.5709 221.679C14.2973 222.485 14.7916 223.474 15.0011 224.539C15.2137 225.375 15.6039 226.156 16.1452 226.827C16.4631 227.243 16.661 227.737 16.7173 228.257C17.0033 229.116 17.2894 229.402 17.8614 229.116H18.1475V231.69L19.5777 234.55L21.0078 237.411L24.1543 240.843L25.2984 241.987C26.1565 242.845 27.3007 243.417 27.8727 244.848L29.0169 245.706C29.2543 245.868 29.4539 246.08 29.6019 246.327C29.75 246.574 29.8432 246.85 29.875 247.136L30.4471 249.138C30.8737 250.085 31.4535 250.955 32.1633 251.713L33.3074 252.285H34.1656C34.2479 252.313 34.3226 252.361 34.3839 252.423C34.4451 252.485 34.4913 252.561 34.519 252.644C34.5466 252.726 34.5548 252.814 34.5432 252.901C34.5315 252.987 34.5002 253.07 34.4516 253.143C34.4038 253.618 34.4038 254.097 34.4516 254.573C34.6448 255.174 35.0519 255.683 35.5957 256.003H36.1678C37.312 255.717 38.4561 256.575 39.6003 258.005H39.8863C39.8863 257.719 40.1723 257.719 39.8863 257.433V256.861C39.8863 256.575 40.1723 256.289 40.4584 256.575C40.7337 256.767 40.9565 257.024 41.1064 257.324C41.2563 257.624 41.3286 257.956 41.3165 258.291V258.863C41.5266 260.058 41.9121 261.214 42.4606 262.296C43.8908 263.154 43.8908 263.154 43.8908 262.582C43.8908 262.01 43.8908 262.01 44.4629 262.01H45.607L46.1791 262.868L48.4674 264.298C50.4697 266.586 53.6161 266.3 55.9044 267.731L60.767 272.593H61.3391C61.7563 273.624 62.3764 274.56 63.1626 275.346C63.9488 276.133 64.8851 276.753 65.9157 277.17C66.2259 277.659 66.646 278.069 67.1426 278.367C67.6392 278.665 68.1986 278.842 68.7761 278.886C68.7761 280.316 70.4923 280.602 71.9225 280.888C72.5093 281.55 73.3291 281.96 74.2108 282.032H74.7828C75.3287 282.601 76.0043 283.028 76.7517 283.277C77.4991 283.526 78.2959 283.59 79.0734 283.463L81.6477 285.751L88.5126 288.325V288.897C89.9428 292.044 93.3753 290.9 95.6636 291.758L98.81 292.902H99.9541C103.387 293.76 106.819 295.476 110.537 294.332C110.426 294.705 110.426 295.103 110.537 295.476C113.684 297.478 117.402 295.476 120.835 296.62C122.391 297.2 124.084 297.3 125.697 296.906H125.983L128.272 297.478H129.13L131.704 298.051H132.562C132.78 297.925 133.026 297.859 133.277 297.859C133.529 297.859 133.775 297.925 133.993 298.051C135.382 298.572 136.819 298.955 138.283 299.195H139.999C140.304 299.019 140.649 298.926 141 298.926C141.352 298.926 141.697 299.019 142.002 299.195H153.157C154.688 299.346 156.233 299.25 157.734 298.909H160.594L162.024 298.337H171.463L173.18 297.765L174.61 296.906H180.903V298.623H177.184L173.752 299.195C172.608 299.481 171.749 299.195 170.891 299.481C169.99 299.874 169.014 300.069 168.031 300.053L164.312 300.911H163.168C161.736 300.653 160.263 300.751 158.878 301.197H153.729C153.324 301.378 152.886 301.472 152.442 301.472C151.998 301.472 151.56 301.378 151.155 301.197H138.283C137.728 301.092 137.156 301.114 136.611 301.263C136.066 301.411 135.561 301.682 135.137 302.055H134.279L133.42 301.483V300.625H129.988C128.804 300.138 127.548 299.848 126.27 299.767H119.119L117.116 299.195L115.686 298.623L109.679 297.478H108.249L106.819 296.906L100.812 294.904L96.8077 293.76H90.5149C90.2289 293.76 90.2289 294.046 90.2289 294.332H90.8009C94.5194 295.762 98.2379 296.906 101.956 298.623H102.814L105.389 299.195L109.393 300.339H113.112L114.828 300.911L116.83 301.769L121.693 302.627L124.839 303.199L127.986 303.771H130.274L132.562 304.343H141.43L144.29 304.915H150.869L153.729 304.343H160.022C161.166 304.343 161.738 304.057 162.024 303.485H164.885C165.306 303.52 165.729 303.461 166.125 303.313C166.521 303.165 166.879 302.93 167.173 302.627C166.887 302.913 167.173 302.913 167.459 303.199H168.603V302.627C168.603 302.341 168.603 302.341 169.175 302.055C169.747 301.769 170.891 301.769 171.177 302.341H172.322L173.18 301.769C173.752 301.769 173.752 301.769 173.752 302.055H175.754L177.184 301.483L179.472 300.339C179.759 301.197 180.617 301.483 183.191 300.911L186.909 299.767H190.342C192.916 299.481 196.063 299.767 198.065 297.765H198.637L199.781 296.906L202.928 296.048C204.955 295.631 206.892 294.856 208.648 293.76L209.792 293.188H210.078L212.653 291.472L213.797 290.9L215.227 290.328H216.371C217.515 290.042 217.515 290.042 217.801 289.183C218.087 288.325 217.801 288.897 217.229 288.897H216.943L218.088 287.467H218.66C219.518 287.181 220.09 286.895 220.662 287.181H221.234C221.848 287.009 222.407 286.681 222.858 286.231C223.308 285.78 223.636 285.221 223.808 284.607C224.666 283.463 226.955 284.035 227.527 282.318L239.826 273.451C242.973 273.165 243.831 270.305 246.119 268.589C248.407 266.873 252.698 265.442 254.7 262.296L257.275 261.152H257.561C258.281 261.328 259.041 261.217 259.681 260.844C260.322 260.47 260.792 259.863 260.993 259.149V260.294C263.281 259.149 266.142 261.152 268.43 258.863C270.718 256.575 268.43 251.14 271.29 247.994L273.293 246.564C275.455 242.86 276.91 238.786 277.583 234.55L278.155 233.978C278.155 233.12 278.155 231.976 279.299 231.404C279.807 231.007 280.147 230.434 280.253 229.799C280.359 229.163 280.223 228.511 279.872 227.971H279.299C279.375 227.841 279.414 227.693 279.414 227.542C279.414 227.392 279.375 227.244 279.299 227.113C281.302 227.113 281.588 225.111 282.732 224.253V220.248C282.693 220.06 282.693 219.865 282.732 219.676C282.889 219.019 282.985 218.349 283.018 217.674Z" fill="#6640F3"/>
<path d="M75.3546 26.6013L74.4965 27.1733L73.3523 28.0314L74.7825 27.4594L75.3546 26.6013ZM92.8028 20.8805H93.0889L93.947 20.3084H92.8028V20.8805ZM85.3659 23.7409L85.0798 24.0269H85.3659V23.7409ZM26.1562 74.9416L25.012 76.0857H25.5841C25.7826 75.9737 25.943 75.8049 26.045 75.601C26.1469 75.3972 26.1856 75.1676 26.1562 74.9416ZM34.7373 64.9303C35.1134 64.4079 35.4032 63.8284 35.5954 63.214C35.0115 63.57 34.5212 64.0603 34.1652 64.6442C33.8792 64.9303 33.8792 65.2163 34.1652 65.2163L34.7373 64.9303ZM31.3048 69.2208V68.6487C30.7328 68.6487 29.8747 69.5068 29.0165 69.5068V70.0789C29.8747 70.937 30.1607 70.651 31.3048 69.2208ZM211.222 26.3152H211.508L210.078 25.4571L211.222 26.3152ZM204.071 22.3107C205.502 22.0247 206.36 23.4549 207.504 23.7409H207.79L206.932 23.1688L204.071 21.7386L200.925 20.3084L201.783 20.8805L204.071 22.3107ZM184.335 14.5877H184.049L180.616 14.0156H182.046L184.335 14.5877ZM190.056 16.59L193.774 17.7341C192.627 17.0987 191.361 16.709 190.056 16.59ZM164.312 16.59C164.63 16.1745 164.828 15.6798 164.884 15.1598H163.454L162.596 16.0179L163.74 16.876L164.312 16.59ZM178.042 17.4481C178.032 17.5432 178.032 17.639 178.042 17.7341V17.4481ZM306.187 167.046H305.329V165.901H306.187C306.473 165.901 306.759 165.043 306.473 164.757C306.187 164.471 306.187 162.755 305.615 162.469C305.439 162.407 305.288 162.29 305.185 162.135C305.082 161.981 305.032 161.797 305.042 161.611L305.615 160.467C305.663 160.279 305.663 160.082 305.615 159.895H305.042L304.47 159.036C304.184 159.895 303.898 160.753 303.326 161.039C303.288 161.228 303.288 161.422 303.326 161.611C303.326 161.897 303.326 162.183 303.04 162.183H302.754C302.701 162.481 302.604 162.77 302.468 163.041C301.905 163.806 301.515 164.685 301.324 165.615C301.263 165.814 301.258 166.026 301.308 166.227C301.359 166.429 301.463 166.613 301.61 166.759H301.896C301.619 167.488 301.521 168.273 301.61 169.048V170.192C301.583 170.68 301.487 171.161 301.324 171.622H301.038L299.894 173.624V175.341C300.033 176.461 299.725 177.592 299.036 178.487H298.464L297.892 177.915C297.669 177.582 297.528 177.202 297.478 176.805C297.428 176.407 297.472 176.004 297.606 175.627C297.914 174.025 298.01 172.39 297.892 170.764C297.892 170.478 297.606 170.192 297.606 170.192C297.42 170.44 297.319 170.741 297.319 171.05V172.766C297.319 173.338 297.033 174.483 296.461 174.769C295.889 175.055 296.175 175.341 296.175 175.627L295.603 177.343L296.461 178.773C295.889 179.345 295.317 179.059 295.031 178.487V181.347H295.889V182.492C295.376 183.767 295.086 185.122 295.031 186.496C295.008 186.877 295.008 187.259 295.031 187.64C295.047 188.903 294.854 190.159 294.459 191.359C294.373 191.928 294.373 192.506 294.459 193.075L293.601 195.077C293.396 195.776 293.108 196.449 292.743 197.079L291.885 198.796L289.31 206.519C290.169 209.093 288.166 210.809 287.022 212.525C287.183 213.725 287.059 214.945 286.662 216.088C286.264 217.23 285.604 218.264 284.734 219.104V220.248C284.734 220.535 285.02 220.821 285.592 220.534L286.736 219.676L287.308 218.532H287.88C288.166 218.818 288.452 218.818 289.024 218.246H289.596C289.826 218.461 289.979 218.746 290.03 219.056C290.082 219.366 290.03 219.685 289.883 219.962C289.681 220.708 289.585 221.478 289.596 222.251C289.596 222.537 289.596 222.823 289.883 222.823H290.455C290.741 223.109 291.027 222.823 291.313 221.965L291.885 220.534H292.743C293.887 220.248 293.887 220.248 294.459 218.818L295.889 216.244L296.747 214.528L297.892 211.667C297.85 210.645 298.152 209.638 298.75 208.807C298.946 208.572 299.076 208.29 299.126 207.988C299.177 207.686 299.145 207.376 299.036 207.091C299.036 206.519 299.036 206.233 299.608 205.375L300.466 204.23L301.896 201.37C302.002 200.495 302.194 199.633 302.468 198.796C303.03 197.636 303.323 196.365 303.326 195.077C303.504 194.187 303.792 193.322 304.184 192.503V191.073C303.898 190.501 303.898 190.501 304.184 189.356C304.47 188.212 304.47 188.784 304.756 188.784C304.86 188.9 304.939 189.036 304.988 189.184C305.037 189.332 305.056 189.488 305.042 189.642L305.615 188.212C305.977 187.402 306.172 186.526 306.187 185.638V184.78C306.187 184.494 306.187 183.922 305.901 183.922V185.066C305.329 185.066 305.042 185.638 304.47 185.924C304.614 185.168 304.709 184.404 304.756 183.636L305.901 183.064C306.124 182.843 306.292 182.572 306.391 182.274C306.491 181.976 306.519 181.658 306.473 181.347C306.442 181.062 306.442 180.774 306.473 180.489C306.86 179.19 307.053 177.841 307.045 176.485V175.913L307.903 173.052H308.189C308.312 172.95 308.404 172.816 308.454 172.664C308.505 172.512 308.512 172.35 308.475 172.194H308.189C308.095 171.795 308.098 171.379 308.197 170.981C308.297 170.583 308.49 170.214 308.761 169.906C308.584 169.262 308.259 168.668 307.812 168.171C307.366 167.674 306.809 167.289 306.187 167.046ZM25.8701 88.0993C25.9356 87.9142 25.9356 87.7123 25.8701 87.5272L25.2981 86.9551L24.726 87.5272L23.8679 89.2434C23.8679 90.1015 23.0098 90.9596 23.0098 91.8177V92.3898H23.2958L25.8701 88.0993ZM301.324 159.036H301.61C302.218 158.002 302.421 156.78 302.182 155.604C302.131 155.336 302.158 155.059 302.259 154.805C302.361 154.552 302.532 154.333 302.754 154.174H303.04V153.602L302.468 153.03H302.182C301.896 153.316 301.61 153.888 301.324 153.888C301.038 153.888 301.038 154.174 301.038 154.746V155.604C300.812 156.753 300.911 157.941 301.324 159.036ZM37.5977 257.719C37.3116 257.719 37.5977 258.291 37.5977 258.577L39.886 260.866H40.172C39.5999 260.008 39.3139 259.15 39.5999 258.863C39.076 258.823 38.5769 258.624 38.1697 258.291L37.5977 257.719ZM303.898 156.462H304.184C304.271 155.893 304.271 155.315 304.184 154.746C303.326 155.032 303.326 155.032 303.326 156.462C303.326 157.892 303.612 156.748 303.898 156.462Z" fill="#6640F3"/>
<path d="M305.042 177.342C305.192 177.139 305.295 176.906 305.345 176.659C305.394 176.411 305.389 176.156 305.328 175.912C305.328 175.626 305.042 175.34 305.042 175.626H304.47V176.198C304.47 177.342 304.756 177.628 305.042 177.342ZM305.328 153.887H305.042V155.603C305.313 155.074 305.413 154.475 305.328 153.887ZM48.7529 264.869H48.1808V265.441L48.7529 266.013H49.325V265.441L48.7529 264.869ZM296.461 169.619C296.461 169.333 296.461 169.333 296.175 169.333L296.461 169.619ZM28.1582 247.421L29.5884 248.851L28.4442 247.135L28.1582 247.421Z" fill="#6640F3"/>
<path d="M265.569 67.2175L264.997 66.3594H264.711L265.569 67.2175ZM16.4307 92.6748C16.5962 92.5281 16.6986 92.3232 16.7167 92.1027V92.6748H16.4307ZM46.7506 264.583H46.4646C46.7506 264.869 47.0366 264.583 46.7506 264.297V264.583ZM47.3227 266.585H47.6087L47.3227 266.299V266.585Z" fill="#6640F3"/>
<path d="M213.85 157.86V163.13C213.85 164.943 213.793 166.983 213.68 169.25C213.68 171.517 213.51 173.613 213.17 175.54C212.83 177.58 212.433 179.563 211.98 181.49C211.527 183.303 210.96 185.117 210.28 186.93C209.827 188.177 209.43 189.31 209.09 190.33C208.75 191.237 208.297 191.973 207.73 192.54C207.73 192.653 207.673 192.71 207.56 192.71C207.56 192.71 207.56 192.767 207.56 192.88C206.767 194.353 206.03 195.543 205.35 196.45C204.897 197.243 204.33 198.037 203.65 198.83C202.97 199.51 202.29 200.19 201.61 200.87C201.043 201.437 200.42 202.003 199.74 202.57C199.173 203.137 198.607 203.703 198.04 204.27C198.04 204.27 197.983 204.27 197.87 204.27C197.87 204.27 197.87 204.327 197.87 204.44C197.303 205.007 196.737 205.857 196.17 206.99C196.057 207.103 196 207.217 196 207.33C196 207.443 195.943 207.557 195.83 207.67L195.32 208.52C195.207 208.633 195.093 208.803 194.98 209.03C194.98 209.143 194.923 209.2 194.81 209.2C194.357 209.993 193.79 210.73 193.11 211.41C192.543 211.863 191.863 212.43 191.07 213.11C190.39 213.677 189.653 214.073 188.86 214.3H188.01C187.897 214.753 187.727 215.263 187.5 215.83C187.387 216.283 187.217 216.737 186.99 217.19C186.877 217.303 186.763 217.473 186.65 217.7C186.65 217.927 186.537 218.153 186.31 218.38C186.197 218.493 186.083 218.607 185.97 218.72C185.857 218.833 185.8 219.003 185.8 219.23C185.687 220.477 185.573 222.347 185.46 224.84C185.46 227.333 185.403 229.94 185.29 232.66C185.29 235.493 185.29 238.157 185.29 240.65C185.29 243.143 185.233 245.013 185.12 246.26C185.12 246.373 184.893 246.203 184.44 245.75C184.327 245.41 184.213 245.07 184.1 244.73C184.1 244.39 183.987 244.05 183.76 243.71L182.06 236.06C181.493 234.36 181.21 232.263 181.21 229.77C181.21 227.277 181.21 224.783 181.21 222.29C181.323 219.91 181.153 217.87 180.7 216.17C180.7 216.17 180.643 216.17 180.53 216.17C180.53 216.283 180.53 216.397 180.53 216.51C180.53 216.623 180.473 216.623 180.36 216.51C180.247 216.397 180.133 216.34 180.02 216.34C179.793 216.227 179.567 216.057 179.34 215.83C179.227 215.717 179.057 215.603 178.83 215.49C178.717 215.377 178.547 215.263 178.32 215.15C177.867 215.603 177.527 216.057 177.3 216.51C177.073 216.737 176.96 216.907 176.96 217.02L175.94 218.21C174.693 219.797 173.73 221.553 173.05 223.48L172.03 226.54C171.577 227.9 171.067 229.317 170.5 230.79C169.933 232.377 169.083 233.793 167.95 235.04C167.27 235.72 166.987 235.947 167.1 235.72C167.327 235.607 167.44 235.493 167.44 235.38L166.76 236.06C166.307 236.287 166.08 236.457 166.08 236.57C166.08 236.797 165.797 236.967 165.23 237.08C165.117 237.08 164.89 237.023 164.55 236.91C164.323 236.797 164.097 236.797 163.87 236.91C163.757 236.91 163.643 236.91 163.53 236.91C163.417 237.023 163.247 237.08 163.02 237.08L161.83 237.93C161.603 238.043 161.263 238.27 160.81 238.61C160.47 238.95 160.13 238.95 159.79 238.61C159.677 238.497 159.563 238.327 159.45 238.1C159.45 237.873 159.337 237.703 159.11 237.59C158.997 237.477 158.883 237.477 158.77 237.59C158.657 237.817 158.543 237.873 158.43 237.76C158.317 237.647 158.203 237.533 158.09 237.42C157.977 237.307 157.863 237.193 157.75 237.08C157.297 236.853 156.843 236.513 156.39 236.06C155.937 235.607 155.483 235.21 155.03 234.87C154.577 234.417 154.18 234.077 153.84 233.85C153.613 234.417 153.5 234.983 153.5 235.55C153.5 236.23 153.387 236.853 153.16 237.42C153.047 237.873 152.877 238.27 152.65 238.61C152.537 238.95 152.48 239.29 152.48 239.63C152.367 240.877 152.31 242.69 152.31 245.07C152.31 247.563 152.31 250.17 152.31 252.89C152.31 255.61 152.253 258.16 152.14 260.54C152.027 263.033 151.857 264.903 151.63 266.15C151.517 267.17 151.403 267.34 151.29 266.66C151.29 265.98 151.233 264.847 151.12 263.26C151.12 261.673 151.063 260.03 150.95 258.33C150.95 256.743 150.95 255.44 150.95 254.42C150.837 252.72 150.723 250.567 150.61 247.96C150.61 245.353 150.553 242.747 150.44 240.14C150.44 237.647 150.383 235.55 150.27 233.85C149.817 234.19 149.42 234.587 149.08 235.04C148.4 235.833 147.777 236.627 147.21 237.42C146.643 238.213 145.907 238.893 145 239.46C144.887 240.367 144.773 241.273 144.66 242.18C144.547 243.087 144.433 243.993 144.32 244.9C144.207 246.6 143.98 248.243 143.64 249.83C143.413 251.417 143.187 253.003 142.96 254.59C142.847 255.27 142.733 255.893 142.62 256.46C142.62 257.14 142.507 257.763 142.28 258.33C142.167 258.783 142.053 259.463 141.94 260.37C141.827 261.39 141.713 261.673 141.6 261.22C141.373 258.613 141.26 255.78 141.26 252.72C141.26 249.773 141.147 247.053 140.92 244.56C140.92 244.447 140.807 244.39 140.58 244.39C140.353 244.39 140.24 244.447 140.24 244.56C140.013 247.053 139.9 249.887 139.9 253.06C139.9 256.233 139.787 259.123 139.56 261.73C139.56 262.183 139.447 262.013 139.22 261.22C139.107 260.427 138.993 259.86 138.88 259.52C138.54 258.273 138.257 256.857 138.03 255.27C137.803 253.683 137.577 252.38 137.35 251.36C137.123 249.32 136.897 247.28 136.67 245.24C136.557 243.313 136.33 241.387 135.99 239.46L134.97 238.44C134.63 237.873 134.29 237.307 133.95 236.74C133.723 236.287 133.497 235.833 133.27 235.38C132.363 233.34 131.513 231.3 130.72 229.26C130.04 227.22 129.247 225.237 128.34 223.31L125.79 218.04C125.677 217.813 125.62 217.643 125.62 217.53C125.62 217.417 125.563 217.303 125.45 217.19C125.223 217.643 125.11 218.153 125.11 218.72C125.223 219.4 125.11 220.023 124.77 220.59C124.657 220.703 124.543 220.533 124.43 220.08C124.317 219.74 124.203 219.513 124.09 219.4C123.977 218.72 123.807 218.21 123.58 217.87C123.58 218.097 123.467 218.323 123.24 218.55C123.127 218.777 122.9 219.06 122.56 219.4C122.22 219.74 121.88 220.08 121.54 220.42C121.313 220.76 121.03 221.043 120.69 221.27C120.123 222.063 119.67 222.97 119.33 223.99C119.103 225.123 118.877 226.143 118.65 227.05C118.537 227.503 118.423 227.957 118.31 228.41C118.31 228.863 118.197 229.317 117.97 229.77C117.857 230.223 117.743 230.903 117.63 231.81C117.517 232.717 117.403 232.943 117.29 232.49C116.043 231.243 115.477 230.733 115.59 230.96C115.703 231.3 116.043 231.867 116.61 232.66C117.177 233.567 117.517 234.303 117.63 234.87C117.743 235.55 117.177 235.607 115.93 235.04C114.797 234.7 114.23 233.907 114.23 232.66C114.343 231.413 114.57 229.997 114.91 228.41C115.363 226.823 115.477 225.463 115.25 224.33C115.25 224.103 115.137 223.877 114.91 223.65C114.797 223.423 114.74 223.423 114.74 223.65C114.627 224.217 114.57 225.067 114.57 226.2C114.57 227.333 114.57 228.24 114.57 228.92C114.57 229.713 114.4 229.827 114.06 229.26C113.493 228.013 113.323 226.71 113.55 225.35C113.777 223.99 113.777 222.687 113.55 221.44C113.437 220.76 113.153 220.193 112.7 219.74C112.473 219.627 112.247 219.457 112.02 219.23C111.793 219.003 111.567 218.833 111.34 218.72C111.227 218.72 111.113 218.777 111 218.89C111 219.117 110.943 219.287 110.83 219.4C110.49 219.4 110.32 219.457 110.32 219.57C110.207 220.477 110.207 221.667 110.32 223.14C110.547 224.727 110.66 226.03 110.66 227.05C110.773 228.07 110.433 228.353 109.64 227.9C108.507 226.993 108.167 225.633 108.62 223.82C109.187 222.007 109.357 220.363 109.13 218.89C109.13 218.663 109.073 218.38 108.96 218.04C108.847 217.7 108.677 217.643 108.45 217.87C108.223 218.21 108.167 218.72 108.28 219.4C108.393 220.08 108.28 220.363 107.94 220.25C107.487 220.023 107.317 219.627 107.43 219.06C107.657 218.493 107.713 217.983 107.6 217.53L106.41 215.83C105.957 215.603 105.56 215.377 105.22 215.15C103.973 214.243 103.35 212.997 103.35 211.41V179.45C101.197 175.937 99.61 172.65 98.59 169.59C97.6833 166.417 97.5133 163.867 98.08 161.94C98.76 160.013 100.517 159.05 103.35 159.05V106.35C103.35 105.67 103.293 104.933 103.18 104.14C103.18 103.233 103.237 102.383 103.35 101.59C103.35 100.457 103.633 99.55 104.2 98.87C104.653 98.19 105.277 97.68 106.07 97.34C106.75 97.1133 107.317 97 107.77 97C108.337 96.8867 108.903 96.8867 109.47 97C110.15 97 110.773 97 111.34 97H153.84C155.653 97 157.467 97 159.28 97C161.093 97 162.907 97.1133 164.72 97.34C177.187 98.36 187.67 102.1 196.17 108.56C196.85 109.013 197.36 109.41 197.7 109.75C198.04 109.977 198.323 110.203 198.55 110.43C200.59 112.13 202.573 114.227 204.5 116.72C205.86 118.193 206.993 119.893 207.9 121.82C210.053 125.787 211.64 130.263 212.66 135.25C212.66 135.363 212.66 135.42 212.66 135.42C212.773 135.42 212.83 135.477 212.83 135.59C212.943 136.043 213.057 136.553 213.17 137.12C213.283 137.573 213.34 138.083 213.34 138.65C213.68 140.123 213.85 141.71 213.85 143.41C214.077 148.737 214.077 153.553 213.85 157.86ZM146.53 130.66L145.51 129.64C144.263 128.393 143.753 127.827 143.98 127.94C144.207 128.053 144.603 128.45 145.17 129.13C145.85 129.81 146.077 130.377 145.85 130.83V180.81C145.85 189.083 144.887 195.147 142.96 199C141.147 202.853 138.653 204.95 135.48 205.29C132.42 205.63 129.077 204.78 125.45 202.74C121.823 200.587 118.253 197.697 114.74 194.07C111.227 190.443 108.053 186.59 105.22 182.51C102.5 178.43 100.46 174.577 99.1 170.95C97.74 167.21 97.4 164.263 98.08 162.11C98.8733 159.843 100.97 158.823 104.37 159.05C107.77 159.163 112.813 161.033 119.5 164.66C126.3 168.173 135.083 173.897 145.85 181.83L147.21 182.85H154.35C155.823 182.85 157.24 182.793 158.6 182.68C160.073 182.453 161.547 182.113 163.02 181.66C163.927 181.32 164.777 180.81 165.57 180.13C165.683 180.13 165.74 180.13 165.74 180.13C165.74 180.017 165.797 179.96 165.91 179.96C166.137 179.733 166.363 179.45 166.59 179.11C166.817 178.77 167.043 178.43 167.27 178.09C167.95 176.957 168.46 175.767 168.8 174.52C169.253 173.16 169.593 171.913 169.82 170.78C169.82 170.667 169.82 170.553 169.82 170.44C169.933 170.213 169.99 170.043 169.99 169.93C170.217 169.25 170.33 168.57 170.33 167.89C170.443 167.097 170.557 166.36 170.67 165.68C170.67 164.433 170.67 163.073 170.67 161.6C170.783 160.013 170.84 158.427 170.84 156.84V154.29C170.84 153.157 170.783 152.08 170.67 151.06C170.67 149.927 170.67 148.793 170.67 147.66C170.67 147.32 170.613 146.753 170.5 145.96C170.5 145.053 170.5 144.203 170.5 143.41C170.387 142.163 170.16 141.03 169.82 140.01C169.593 138.877 169.197 137.8 168.63 136.78C168.63 136.78 168.517 136.553 168.29 136.1C168.177 135.873 167.95 135.59 167.61 135.25C167.61 135.137 167.497 134.967 167.27 134.74L166.25 133.72C165.457 133.04 164.663 132.7 163.87 132.7C163.077 132.7 162.227 132.813 161.32 133.04C160.413 133.153 159.45 133.38 158.43 133.72C157.41 133.947 156.39 134.117 155.37 134.23C154.917 134.343 154.407 134.457 153.84 134.57C153.387 134.57 152.933 134.513 152.48 134.4C151.687 134.173 150.893 133.833 150.1 133.38C149.307 132.813 148.57 132.303 147.89 131.85C147.323 131.283 146.87 130.887 146.53 130.66Z" fill="white"/>
</svg>
